<svg version="1.1" id="Слой_1" xmlns="http://www.w3.org/2000/svg" x="0" y="0" viewBox="0 0 187.6 181.9" xml:space="preserve"><style>.st0{fill-rule:evenodd;clip-rule:evenodd}.st0,.st1,.st3{fill:none;stroke:#53403b;stroke-width:4.252;stroke-linecap:round;stroke-linejoin:round;stroke-miterlimit:22.9256}.st3{fill-rule:evenodd;clip-rule:evenodd;fill:#fff}</style><path class="st0" d="M181.3 76.1s3.3 4.9 4 12.8c.7 8 0 10.4-6.8 13.9s-20.5 4.5-27.8 18.9c-7.3 14.4-9.7 19.6-26.4 19.6H80.9c-4.7-.1-3.5-2.7-3.6-3.7 0-.6-2.8-5 8.8-11.2 11.6-6.2 12-5.6 17.9-11 5.9-5.4 6.5-7.4 7.1-7.1 0 0 5.2 5.7 9.2 6.8 4 1 7.3 0 14.2-4.7 6.9-4.7 14.1-7.8 23.6-14.2 9.5-6.4 16.7-11.5 19.4-14.6 3-3.2 3.8-5.5 3.8-5.5z"/><path class="st1" d="M181.3 101.2s1.4 1.3-1.9 5.9c-3.3 4.6-10.5 12-9.9 20.7.6 8.8 6.7 13.2 5.2 13.2h-13.4s-.6-4.6.4-10.9c1-6.3 6.3-13.4 4.5-16.3-1.8-2.9-4.4-3.6-6.4-2.6m20.9-33.9s-1.9-3.6-4.2-9.6c-2.3-6.1-2.1-10.6-1.6-18.7.6-8.2 1.6-15.7 4.3-25.7 2.8-10 9.2-14.9 4-16.8-5.2-1.9-7.3-2.3-13.9-2.3h-4.2"/><path class="st0" d="M116.9 113.2s9.9-9.1 16.8-14.1 28.5-14.2 31.6-34.2c3.1-20 3.9-52 .9-57.6-2.9-5.6-7.1-4.7-10.1-4.9-2.9-.2-14.7-.5-18.4-.2-3.6.3-3.3.5-1.9 11.5 1.4 10.9 6.2 41.5 3.8 51.5-2.4 10.1-7.1 16.8-15.1 25.9-8 9-12.5 18-12.5 18l4.9 4.1z"/><path d="M160.4 7.7c1.5 0 2.7 1.2 2.7 2.7 0 1.5-1.2 2.7-2.7 2.7-1.5 0-2.7-1.2-2.7-2.7 0-1.5 1.2-2.7 2.7-2.7zm.9 8.2c1.5 0 2.7 1.2 2.7 2.7 0 1.5-1.2 2.7-2.7 2.7-1.5 0-2.7-1.2-2.7-2.7 0-1.5 1.2-2.7 2.7-2.7zm.1 7.8c1.5 0 2.7 1.2 2.7 2.7 0 1.5-1.2 2.7-2.7 2.7-1.5 0-2.7-1.2-2.7-2.7 0-1.4 1.2-2.7 2.7-2.7zm0 8.1c1.5 0 2.7 1.2 2.7 2.7 0 1.5-1.2 2.7-2.7 2.7-1.5 0-2.7-1.2-2.7-2.7 0-1.5 1.2-2.7 2.7-2.7zm-.5 8.1c1.5 0 2.7 1.2 2.7 2.7 0 1.5-1.2 2.7-2.7 2.7-1.5 0-2.7-1.2-2.7-2.7 0-1.4 1.2-2.7 2.7-2.7zm-.9 7.9c1.5 0 2.7 1.2 2.7 2.7 0 1.5-1.2 2.7-2.7 2.7s-2.7-1.2-2.7-2.7c0-1.5 1.2-2.7 2.7-2.7zm-.9 7.8c1.5 0 2.7 1.2 2.7 2.7 0 1.5-1.2 2.7-2.7 2.7-1.5 0-2.7-1.2-2.7-2.7 0-1.5 1.2-2.7 2.7-2.7zm-1.4 7.7c1.5 0 2.7 1.2 2.7 2.7 0 1.5-1.2 2.7-2.7 2.7-1.5 0-2.7-1.2-2.7-2.7 0-1.5 1.2-2.7 2.7-2.7zm-2.9 7.3c1.5 0 2.7 1.2 2.7 2.7 0 1.5-1.2 2.7-2.7 2.7-1.5 0-2.7-1.2-2.7-2.7 0-1.5 1.2-2.7 2.7-2.7zm-4.7 5.9c1.5 0 2.7 1.2 2.7 2.7 0 1.5-1.2 2.7-2.7 2.7-1.5 0-2.7-1.2-2.7-2.7 0-1.5 1.2-2.7 2.7-2.7zm-5.4 5c1.5 0 2.7 1.2 2.7 2.7 0 1.5-1.2 2.7-2.7 2.7-1.5 0-2.7-1.2-2.7-2.7 0-1.5 1.2-2.7 2.7-2.7zm-6.1 4.6c1.5 0 2.7 1.2 2.7 2.7 0 1.5-1.2 2.7-2.7 2.7-1.5 0-2.7-1.2-2.7-2.7 0-1.5 1.2-2.7 2.7-2.7zm-6.1 4.2c1.5 0 2.7 1.2 2.7 2.7 0 1.5-1.2 2.7-2.7 2.7-1.5 0-2.7-1.2-2.7-2.7 0-1.5 1.2-2.7 2.7-2.7z" fill-rule="evenodd" clip-rule="evenodd" fill="#53403b"/><path class="st3" d="M68.5 173.8H36.9l-7.2-20.6 3.8-1.6-.2-21 4.8-10.2s1.8-1.4.5-12.2c-1.4-10.9-2.9-19-7.5-42.1-4.5-23.1-7.9-30.5-7.9-30.5s5.7-3.6 9.5-8.6 10.9-14 26.7-14 21.3 4 25.6 9.7c4.3 5.7 12.9 8.4 12.9 8.4s-6.8 40.3-8.6 61.1c-1.8 20.8-2.9 25.6 3.2 35.1s12.7 14.9 17 16.1c4.3 1.1 2 6.1 5.2 5.7 3.2-.5 4.8-.5 6.3 2.9 1.6 3.4 6.8 4.1 13.3 4.3 6.6.2 12.9-5.7 18.3-.9s5 5.9 5 5.9l2.9-.9.5 6.3s-29.4 15.6-53.4 12.9c-24-2.7-41.2-14-41.2-14l2.1 8.2z"/><path class="st1" d="M33.5 151.7s10.2-1 23.4 2.6c5.8 1.6 12.2 4.9 18.5 8.1 20.6 10.4 31.2 13.4 49.5 10.7 18.3-2.7 34.3-12.2 34.3-12.2"/><path class="st3" d="M28 133.8l-1.1 13.6s28.5 2.9 36.7 1.6c8.1-1.4 10.4-1.8 10.4-1.8l-1.4-5.9s-16.1 2-30.3-2.7L28 133.8zM54.7 8.4H66V36s-.6 5.2-5.2 5.2c-4.5 0-5.7-5.2-5.7-5.2l-.4-27.6z"/><path class="st1" d="M26.7 47.3s10.5-13.2 18.1-11.5c7.7 1.7 7.6 7.8 4.8 11.5s-7.6.1-8.4 1.4c0 0-1.7 12.3 7.6 14 9.3 1.7 11.9-6.6 11.9-6.6m34-8.8S84.2 34.1 76.6 35.8c-7.7 1.7-7.6 7.8-4.8 11.5s7.6.1 8.4 1.4c0 0 1.7 12.3-7.6 14-9.3 1.7-11.9-6.6-11.9-6.6V41.6m27.2 68.5l-8 5.5s10 12.4 3.8 20.8c-6.1 8.4-10.5 7.7-10.5 7.7M61 57.3v84.4M15 133v25.7m-6.5-23.9L21.4 157M3.8 139.5L26 152.3m-23.9-6.4h25.7m-24 6.4L26 139.5M8.5 157l12.8-22.2"/></svg>