<svg version="1.1" id="Слой_1" xmlns="http://www.w3.org/2000/svg" x="0" y="0" viewBox="0 0 43 35" xml:space="preserve"><style>.st0{fill:#544b47;stroke:#544b47;stroke-width:.25;stroke-miterlimit:10}</style><path class="st0" d="M41.8.5H28.5c-.4 0-.7.3-.7.7v2.1h-2.1c-.4 0-.7.4-.7.7v8.1l-5.1 2.6H1.2c-.4 0-.7.3-.7.7v18.4c0 .4.3.7.7.7h14c.4 0 .7-.3.7-.7v-2l7.6 1.3h10.6c1 0 1.9-.5 2.4-1.4H39c.4 0 .7-.3.7-.7v-2.1h2.1c.4 0 .7-.3.7-.7v-27c0-.4-.3-.7-.7-.7zM14.5 33.1H1.9v-17h12.6v17zM29.2 1.9h11.9v15.5c0-.4-.1-.9-.4-1.3-.2-.4-.6-.8-1-1V4c0-.4-.3-.7-.7-.7h-9.8V1.9zm-2.8 2.9h11.9v9.9h-1.4V8.3c0-.4-.3-.7-.7-.7s-.7-.3-.7-.7c0-.4-.3-.7-.7-.7h-4.9c-.4 0-.7.3-.7.7 0 .4-.3.7-.7.7s-.7.3-.7.7v6.4h-1.4V4.8zm9.1 4.1v5.8h-6.3V8.9c.6-.2 1.1-.7 1.3-1.3h3.7c.2.6.7 1.1 1.3 1.3zm2.8 21.4h-1.4c0-.6-.2-1.1-.5-1.6 1.5-.5 2.2-2.1 1.7-3.6l-.3-.6c.2-.1.3-.1.5-.2v6zm0-11.4h-2.8c-.4 0-.7.3-.7.7 0 .4.3.7.7.7h1.4c.8 0 1.4.6 1.4 1.4s-.6 1.4-1.4 1.4h-2.8c-.4 0-.7.3-.7.7 0 .4.3.7.7.7h1.4c.8 0 1.4.6 1.4 1.4s-.6 1.4-1.4 1.4h-2.8c-.4 0-.7.3-.7.7s.3.7.7.7h1.4c.8 0 1.4.6 1.4 1.4s-.6 1.4-1.4 1.4H23.7l-7.8-1.3V16.1h4.2c.1 0 .2 0 .3-.1l4.6-2.3v1.7c0 .4.3.7.7.7h12.6c.8 0 1.4.6 1.4 1.4s-.6 1.4-1.4 1.4zm1.4 8.5v-7.5c.9-.5 1.4-1.4 1.4-2.4v9.8h-1.4v.1z"/><path class="st0" d="M10.3 26c-1.5 0-2.8 1.3-2.8 2.8 0 1.6 1.3 2.8 2.8 2.8s2.8-1.3 2.8-2.8-1.3-2.8-2.8-2.8zm0 4.3c-.8 0-1.4-.6-1.4-1.4s.6-1.4 1.4-1.4c.8 0 1.4.6 1.4 1.4 0 .7-.6 1.4-1.4 1.4z"/></svg>