<svg version="1.1" id="Слой_1" xmlns="http://www.w3.org/2000/svg" x="0" y="0" viewBox="0 0 30 41" xml:space="preserve"><style>.st0{fill:#544b47;stroke:#544b47;stroke-width:.25;stroke-miterlimit:10}</style><path class="st0" d="M29.3.7c-.1-.1-.4-.2-.6-.2H1.3C.9.5.5.9.5 1.3v38.4c0 .4.4.8.8.8h27.3c.4 0 .8-.4.8-.8l.1-38.4c0-.2-.1-.4-.2-.6zm-1.5 38.2H2.1V2.1h25.8l-.1 36.8z"/><path class="st0" d="M26.6 33.8L23 30.1v-.3c0-2.3-1.8-4.1-4.1-4.1s-4.1 1.8-4.1 4.1v.3l-3.7 3.7c-.2.2-.3.5-.2.8s.4.5.7.5l1.7.2.2 1.7c0 .3.2.6.5.7h.3c.2 0 .4-.1.6-.2l3.7-3.7h.6l3.6 3.7c.2.2.4.2.6.2h.3c.3-.1.5-.4.5-.7l.2-1.7 1.7-.2c.3 0 .6-.2.7-.5.1-.3 0-.6-.2-.8zm-11.7 1.5l-.1-.7c0-.4-.3-.7-.7-.7l-.7-.1 1.9-1.9c.4.6.9 1.1 1.5 1.5l-1.9 1.9zm4-3c-1.4 0-2.5-1.1-2.5-2.5s1.1-2.5 2.5-2.5 2.5 1.1 2.5 2.5-1.1 2.5-2.5 2.5zm4.7 1.5c-.4 0-.7.3-.7.7l-.1.7-1.9-1.9c.6-.4 1.1-.9 1.5-1.5l1.9 1.9-.7.1zM11.4 28H5.3c-.4 0-.8.4-.8.8s.4.8.8.8h6.1c.4 0 .8-.4.8-.8 0-.5-.3-.8-.8-.8zm6.8-22.7h-6.5c-.4 0-.8.4-.8.8s.4.8.8.8h6.5c.4 0 .8-.4.8-.8 0-.5-.3-.8-.8-.8zm6.2 3.3H5.6c-.4 0-.8.4-.8.8s.4.8.8.8h18.7c.4 0 .8-.4.8-.8.1-.4-.3-.8-.7-.8zm-3.5 5.5h-8.4c-.4 0-.8.4-.8.8s.4.8.8.8h8.4c.4 0 .8-.4.8-.8s-.4-.8-.8-.8zm-11.3 0h-.5c-.4 0-.8.4-.8.8s.4.8.8.8h.4c.4 0 .8-.4.8-.8.1-.4-.3-.8-.7-.8zm11.3 3.1h-8.4c-.4 0-.8.4-.8.8s.4.8.8.8h8.4c.4 0 .8-.4.8-.8s-.4-.8-.8-.8zm-11.3 0h-.5c-.4 0-.8.4-.8.8s.4.8.8.8h.4c.4 0 .8-.4.8-.8.1-.4-.3-.8-.7-.8zm11.3 3.2h-8.4c-.4 0-.8.4-.8.8s.4.8.8.8h8.4c.4 0 .8-.4.8-.8s-.4-.8-.8-.8zm-11.3 0h-.5c-.4 0-.8.4-.8.8s.4.8.8.8h.4c.4 0 .8-.4.8-.8.1-.4-.3-.8-.7-.8z"/></svg>