<svg version="1.1" id="Слой_1" xmlns="http://www.w3.org/2000/svg" x="0" y="0" viewBox="0 0 38 38" xml:space="preserve"><style>.st0{fill:#544b47;stroke:#544b47;stroke-width:.25;stroke-miterlimit:10}</style><path class="st0" d="M19 .5c-.4 0-.7.3-.7.7s.3.7.7.7c.4 0 .7-.3.7-.7s-.3-.7-.7-.7zm-7.9 24c-.4 0-.7.3-.7.7 0 .4.3.7.7.7s.7-.3.7-.7-.4-.7-.7-.7zm0-2.9c-.4 0-.7.3-.7.7s.3.7.7.7.7-.3.7-.7-.4-.7-.7-.7zm0 8.7c-.4 0-.7.3-.7.7 0 .4.3.7.7.7s.7-.3.7-.7c0-.4-.4-.7-.7-.7zm0 2.9c-.4 0-.7.3-.7.7s.3.7.7.7.7-.3.7-.7-.4-.7-.7-.7zm0-5.8c-.4 0-.7.3-.7.7 0 .4.3.7.7.7s.7-.3.7-.7c0-.4-.4-.7-.7-.7zm-6.4 2.9c-.4 0-.7.3-.7.7s.3.7.7.7.7-.3.7-.7-.3-.7-.7-.7zm0-5.7c-.4 0-.7.3-.7.7 0 .4.3.7.7.7.4 0 .7-.3.7-.7 0-.4-.3-.7-.7-.7zm0 2.9c-.4 0-.7.3-.7.7 0 .4.3.7.7.7s.7-.3.7-.7c0-.4-.3-.7-.7-.7zm0 5.7c-.4 0-.7.4-.7.8s.3.7.7.7c.4 0 .7-.3.7-.7 0-.4-.3-.8-.7-.8zm20.5-12.3c-.4 0-.7.3-.7.7 0 .4.3.7.7.7.4 0 .7-.3.7-.7 0-.4-.3-.7-.7-.7zm0 2.9c-.4 0-.7.3-.7.7 0 .4.3.7.7.7.4 0 .7-.3.7-.7 0-.4-.3-.7-.7-.7zm0 5.8c-.4 0-.7.3-.7.7s.3.7.7.7c.4 0 .7-.3.7-.7s-.3-.7-.7-.7zm0-2.9c-.4 0-.7.3-.7.7 0 .4.3.7.7.7.4 0 .7-.3.7-.7 0-.4-.3-.7-.7-.7z"/><path class="st0" d="M36.8 24.5h-7.9v-5.8c0-.4-.3-.7-.7-.7h-6.7l-.2-5c.8-.7 1.4-1.7 1.4-2.8 0-1.7-1.2-3.2-2.9-3.5V4.1c0-.4-.3-.7-.7-.7-.4 0-.7.3-.7.7v2.5c-1.6.3-2.9 1.8-2.9 3.5 0 1.2.5 2.2 1.4 2.8l-.5 10.9h-1.6v-4.4c0-.4-.3-.7-.7-.7H8.2c-.4 0-.7.3-.7.7v2.2H1.2c-.4 0-.7.3-.7.7v14.4c0 .4.3.7.7.7h35.6c.4 0 .7-.3.7-.7V25.2c0-.4-.3-.7-.7-.7zM7.4 36.1H1.9v-13h5.5v13zm5.8 0H8.9V20.2h4.3v15.9zM19 7.9c1.2 0 2.2 1 2.2 2.2s-1 2.2-2.2 2.2-2.2-1-2.2-2.2 1-2.2 2.2-2.2zm.9 8.7L20 18h-2l.1-1.4h1.8zm-1.8-1.4l.1-1.5c.3.1.5.1.8.1s.5 0 .8-.1l.1 1.5h-1.8zm2 4.3l.1 2.2h-2.3l.1-2.2h2.1zm.1 3.6l.1 2.9h-2.7l.1-2.9h2.5zm-3.1 7.6c.3-.5.4-1.1.4-1.6l.1-1.6h2.8l.1 1.6c0 .6.2 1.1.4 1.6l1.7 2.4h-7.3c0 .1 1.8-2.3 1.8-2.4zm-2.4-5.4h1.6l-.2 3.7c0 .3-.1.7-.3 1l-1.2 1.6.1-6.3zm8.6 10.8h-8.7v-1.4h8.7v1.4zm4.1 0h-2.6v-2.2c0-.1-.1-.4-.1-.4L22.2 30c-.2-.3-.2-.6-.3-1l-.4-9.6h5.9v16.7zm8.7 0h-7.2V25.9h7.2v10.2z"/><path class="st0" d="M33.9 30.3c-.4 0-.7.3-.7.7 0 .4.3.7.7.7s.7-.3.7-.7c0-.4-.3-.7-.7-.7zm0 2.9c-.4 0-.7.3-.7.7s.3.7.7.7.7-.3.7-.7c0-.4-.3-.7-.7-.7zm0-5.8c-.4 0-.7.3-.7.7 0 .4.3.7.7.7s.7-.3.7-.7c0-.4-.3-.7-.7-.7zm-2.9 0c-.4 0-.7.3-.7.7 0 .4.3.7.7.7.4 0 .7-.3.7-.7 0-.4-.3-.7-.7-.7zm0 5.8c-.4 0-.7.3-.7.7s.3.7.7.7c.4 0 .7-.3.7-.7s-.3-.7-.7-.7zm0-2.9c-.4 0-.7.3-.7.7 0 .4.3.7.7.7.4 0 .7-.3.7-.7 0-.4-.3-.7-.7-.7z"/></svg>