<svg version="1.1" id="Слой_1" xmlns="http://www.w3.org/2000/svg" x="0" y="0" viewBox="0 0 189.1 205.7" xml:space="preserve"><style>.st0{fill:#fff;stroke:#53403b;stroke-width:4.252;stroke-linecap:round;stroke-linejoin:round;stroke-miterlimit:22.9256}</style><path class="st0" d="M89.2 8.5h10.6c3.9 0 7.1 3.2 7.1 7.1v23.1h5.3c4.5 0 8.1 3.7 8.1 8.1v118.7c0 1.8-1.4 3.3-3.1 3.5v32c0 1.4-1.1 2.6-2.6 2.6h-11c-1.4 0-2.6-1.2-2.6-2.6v-32c-1.7-.2-3.1-1.7-3.1-3.5v-44h-6.6v44c0 1.8-1.4 3.3-3.1 3.5v32c0 1.4-1.1 2.6-2.6 2.6h-11c-1.4 0-2.6-1.2-2.6-2.6v-32c-1.7-.2-3.1-1.7-3.1-3.5V46.9c0-4.5 3.7-8.1 8.1-8.1h5V15.6c.1-3.9 3.3-7.1 7.2-7.1z"/><path class="st0" d="M69.9 43s-8.6 16-12.6 35.8c-4.1 19.8-7.6 33-1.5 33H69M119.3 43s8.6 16 12.6 35.8c4.1 19.8 7.6 33 1.5 33h-13.2M95.1 15.3c5 0 9.1 5.2 9.1 11.7 0 6.5-4.1 11.7-9.1 11.7S86 33.5 86 27c0-6.4 4.1-11.7 9.1-11.7zm-38.8 96.6v7.1m6.2-7.1v7.1m64-7.1v7.1m6.2-7.1v7.1M95.4 10.7V2.1"/><path class="st0" d="M69.9 43.1s-9.9-4.8-13-13.7c-3-8.9 1.5-24.9-9.4-19.3-10.9 5.6-30 26.9-37.3 63.5-7.4 36.6-8.6 50-7.9 50 .8.1 10.7-35.1 18.3-39.4 7.6-4.3 7 14.1 7.9 14.2.8.1 11.2-37.1 20.1-39.1 8.9-2 8.2 22.3 8.2 22.3"/><path class="st0" d="M28.5 98.5s-.8-35.3 5.1-53.8C39.5 26.2 49.2 9.4 49.2 9.4s-1.7 8.1.1 23.4c1.8 15.2 3.4 24.7 5.5 32.1m64.4-21.8s9.9-4.8 13-13.7c3-8.9-1.5-24.9 9.4-19.3 10.9 5.6 30 26.9 37.3 63.5 7.4 36.6 8.6 50 7.9 50-.8.1-10.7-35.1-18.3-39.4-7.6-4.3-7 14.1-7.9 14.2-.8.1-11.2-37.1-20.1-39.1-8.9-2-8.2 22.3-8.2 22.3"/><path class="st0" d="M160.7 98.5s.8-35.3-5.1-53.8c-5.9-18.5-15.7-35.3-15.7-35.3s1.7 8.1-.1 23.4c-1.8 15.2-3.4 24.7-5.5 32.1M72.1 192.8h16.1m13.1 0h15.9"/><path d="M95.1 110.9c-1.8 0-3.3 1.5-3.3 3.3s1.5 3.3 3.3 3.3 3.3-1.5 3.3-3.3-1.5-3.3-3.3-3.3zm0-8.6c-1.8 0-3.3 1.5-3.3 3.3s1.5 3.3 3.3 3.3 3.3-1.5 3.3-3.3-1.5-3.3-3.3-3.3zm0-8.7c-1.8 0-3.3 1.5-3.3 3.3 0 1.8 1.5 3.3 3.3 3.3s3.3-1.5 3.3-3.3c-.1-1.8-1.5-3.3-3.3-3.3zm0-8.6c-1.8 0-3.3 1.5-3.3 3.3s1.5 3.3 3.3 3.3 3.3-1.5 3.3-3.3-1.5-3.3-3.3-3.3zm0-8.7c-1.8 0-3.3 1.5-3.3 3.3s1.5 3.3 3.3 3.3 3.3-1.5 3.3-3.3-1.5-3.3-3.3-3.3zm0-8.6c-1.8 0-3.3 1.5-3.3 3.3s1.5 3.3 3.3 3.3 3.3-1.5 3.3-3.3-1.5-3.3-3.3-3.3zm0-8.6c-1.8 0-3.3 1.5-3.3 3.3 0 1.8 1.5 3.3 3.3 3.3s3.3-1.5 3.3-3.3c-.1-1.9-1.5-3.3-3.3-3.3zm0-8.7c-1.8 0-3.3 1.5-3.3 3.3 0 1.8 1.5 3.3 3.3 3.3s3.3-1.5 3.3-3.3c-.1-1.8-1.5-3.3-3.3-3.3zm0-8.6c-1.8 0-3.3 1.5-3.3 3.3 0 1.8 1.5 3.3 3.3 3.3s3.3-1.5 3.3-3.3c-.1-1.9-1.5-3.3-3.3-3.3z" fill-rule="evenodd" clip-rule="evenodd" fill="#53403b"/></svg>