<svg version="1.1" id="Слой_1" xmlns="http://www.w3.org/2000/svg" x="0" y="0" viewBox="0 0 175 199" xml:space="preserve"><style>.st0{fill-rule:evenodd;clip-rule:evenodd}.st0,.st1{fill:#fff;stroke:#53403b;stroke-width:4.252;stroke-linecap:round;stroke-linejoin:round;stroke-miterlimit:22.9256}.st2{fill-rule:evenodd;clip-rule:evenodd;fill:#53403b}</style><path class="st0" d="M3.5 99.2S-.7 90.5 8.1 86c8.7-4.5 32.5 2.1 32.5 2.1L53 119.5l-21.3 24.3-11.6-42.5-16.6-2.1zm168.1 0s4.7-8.7-4-13.2-31.4 2.1-31.4 2.1l-12.7 31.5 20.4 23 12.5-41.2 15.2-2.2z"/><path class="st1" d="M32.5 142.1h109.4"/><path class="st0" d="M86.6 154.1c-1.1-.1-5.1-.4-9.7 2.2-5.5 3-9.4-3-14.2-.6-4.8 2.4-10.2-1.2-10.9-1.2-.8 0-3.3 1.7-6.8 1.8-3.3.1-8-3.8-12.9.6l-1 .9v8.7s4.5-6.4 8.3-3.8c10.4 7.1 7.1 1.9 17.3.8 3.5-.4 5.8 5.6 6.5 4.7 0 0 4.3-4.4 6.7-1.8 2.4 2.6 2.3 3.5 6.8 6.4 2.8 1.8 6.3 2.8 10 2.8h.2c3.6-.1 7.2-1 10-2.8 4.4-2.9 4.4-3.8 6.8-6.4 2.4-2.6 6.7 1.8 6.7 1.8.6 1 3-5 6.5-4.7 10.2 1.1 6.9 6.2 17.3-.8 3.8-2.6 8.3 3.8 8.3 3.8v-8.7l-1-.9c-4.9-4.4-9.6-.5-12.9-.6-3.6-.1-6-1.8-6.8-1.8-.8 0-6.1 3.6-10.9 1.2-4.8-2.4-8.7 3.6-14.2.6-5-2.5-8.9-2.3-10.1-2.2z"/><path class="st0" d="M31.8 157.8l-1.7-6s-2.7 2.2-5.5 2.4c-2.9.2-4.1-.7-4.4-.5-.4.2 1.9 3.6.3 6.6-1.6 3-3 6.9 1 13.1 4 6.2 5.2 8.1 3 11.4-2.2 3.3-4.5 3.2-3.7 7.4.8 4.1 2.5 4.5 2.5 4.5h6.3s4.1-2.1 4.6-8.7-2.9-10-3.2-17.2c-.4-6.9.8-13 .8-13z"/><path class="st0" d="M30.1 151.9s-.4-3.7.7-6.3c1.1-2.6 2.1-3.3 2.1-3.3s-4.4-1.3-5.8-5.8c-1.4-4.5 4-20 3.6-26.6-.5-6.6-5.7-17-13.3-17.7-7.5-.7-15 2.2-15.2 10.4-.2 8.2 3.9 9.5 7.6 10.1 3.7.6 11.6 4.4 8.5 13.1-2.3 6.7-4.8 14.4-3.8 20.4 1 6.3 9.9 10.9 15.6 5.7zm111.4 5.9l1.7-6s2.7 2.2 5.5 2.4c2.9.2 4-.7 4.4-.5.4.3-1.9 3.6-.3 6.6 1.6 3 3 6.9-1 13.1-4 6.2-5.2 8.1-3 11.4 2.2 3.3 4.5 3.2 3.7 7.4-.8 4.1-2.5 4.5-2.5 4.5h-6.3s-4.1-2.1-4.6-8.7 2.9-10 3.2-17.2c.4-6.9-.8-13-.8-13zM69 108.2c-6.1-7.2-6.3-14-6.3-14S45.6 81.2 48 62s10.9-17.3 11-17.7c0-.4 2.9-10.2 12.3-13.9C79.8 27 87 27 88.1 27c1.1 0 8.3 0 16.9 3.3 9.3 3.6 12.2 13.4 12.3 13.9 0 .4 8.6-1.5 11 17.7 2.3 19.3-14.8 32.3-14.8 32.3s-.1 6.8-6.3 14c-7.2 8.6-30.9 8.6-38.2 0z"/><path class="st2" d="M79.3 37.3c-1.6 0-2.8 1.3-2.8 2.8 0 1.6 1.3 2.8 2.8 2.8 1.6 0 2.8-1.3 2.8-2.8 0-1.5-1.2-2.8-2.8-2.8zm17.3 0c-1.6 0-2.8 1.3-2.8 2.8 0 1.6 1.3 2.8 2.8 2.8 1.6 0 2.8-1.3 2.8-2.8 0-1.5-1.2-2.8-2.8-2.8zM69.5 51.8c-1.6 0-2.8 1.3-2.8 2.8s1.3 2.8 2.8 2.8c1.6 0 2.8-1.3 2.8-2.8s-1.2-2.8-2.8-2.8zm17.3 0c-1.6 0-2.8 1.3-2.8 2.8s1.3 2.8 2.8 2.8c1.6 0 2.8-1.3 2.8-2.8s-1.2-2.8-2.8-2.8zm18.2 0c-1.6 0-2.8 1.3-2.8 2.8s1.3 2.8 2.8 2.8c1.6 0 2.8-1.3 2.8-2.8s-1.2-2.8-2.8-2.8zM62.3 66.9c-1.6 0-2.8 1.3-2.8 2.8s1.3 2.8 2.8 2.8c1.6 0 2.8-1.3 2.8-2.8s-1.2-2.8-2.8-2.8zm17.3 0c-1.6 0-2.8 1.3-2.8 2.8s1.3 2.8 2.8 2.8 2.8-1.3 2.8-2.8-1.2-2.8-2.8-2.8zm18.2 0c-1.6 0-2.8 1.3-2.8 2.8s1.3 2.8 2.8 2.8 2.8-1.3 2.8-2.8-1.2-2.8-2.8-2.8zm15.9 0c-1.6 0-2.8 1.3-2.8 2.8s1.3 2.8 2.8 2.8c1.6 0 2.8-1.3 2.8-2.8s-1.2-2.8-2.8-2.8zM69.5 82.1c-1.6 0-2.8 1.3-2.8 2.8 0 1.6 1.3 2.8 2.8 2.8 1.6 0 2.8-1.3 2.8-2.8 0-1.5-1.2-2.8-2.8-2.8zm17.3 0c-1.6 0-2.8 1.3-2.8 2.8 0 1.6 1.3 2.8 2.8 2.8 1.6 0 2.8-1.3 2.8-2.8.1-1.5-1.2-2.8-2.8-2.8zm18.2 0c-1.6 0-2.8 1.3-2.8 2.8 0 1.6 1.3 2.8 2.8 2.8 1.6 0 2.8-1.3 2.8-2.8 0-1.5-1.2-2.8-2.8-2.8zM79.3 96c-1.6 0-2.8 1.3-2.8 2.8 0 1.6 1.3 2.8 2.8 2.8 1.6 0 2.8-1.3 2.8-2.8 0-1.5-1.2-2.8-2.8-2.8zm17.3 0c-1.6 0-2.8 1.3-2.8 2.8 0 1.6 1.3 2.8 2.8 2.8 1.6 0 2.8-1.3 2.8-2.8 0-1.5-1.2-2.8-2.8-2.8z"/><path d="M40.7 88s-9.8-20.3-9.2-32.9c.6-12.6 9-18.2 13.8-18.6 4.7-.4 6.1-.8 6.8-2.6.7-1.8 3.2-14.8 15.4-18.7 12.2-3.9 11.2-1.1 12.1-2.7.9-1.6-1.5-5.4.4-7.9 1.8-2.5 6.1-2.8 8.5-2.1M136.3 88s9.8-20.3 9.2-32.9c-.6-12.6-9-18.2-13.8-18.6-4.7-.4-6.1-.8-6.8-2.6-.7-1.8-3.2-14.8-15.4-18.7-12.2-3.9-11.2-1.1-12.1-2.7-.9-1.6 1.5-5.4-.4-7.9-1.8-2.5-6.1-2.8-8.5-2.1M9.7 112.6c4.1 1.1 9.8-2.4 9.3-6.9-.5-4.6-6.2-5.3-7.8-2.2" fill="none" stroke="#53403b" stroke-width="4.252" stroke-linecap="round" stroke-linejoin="round" stroke-miterlimit="22.926"/><path class="st0" d="M33 142.1s-3.1-.8-3.3-4c-.2-3.2-1.2-5.6 2.4-8.8 3.6-3.2 13.2-8 20.1-11.7 6.9-3.7 12.7-6 19.6-7 6.4-.9 14.9-.9 16.1-.9 1.2 0 9.7 0 16.1.9 6.9 1 12.7 3.3 19.6 7 6.9 3.7 16.4 8.6 20.1 11.7 3.6 3.2 2.6 5.5 2.4 8.8-.2 3.2-3.3 4-3.3 4H33z"/><path class="st1" d="M31.3 130.1h113.3"/><path class="st2" d="M88.3 7.7c-1.6 0-2.8 1.3-2.8 2.8 0 1.6 1.3 2.8 2.8 2.8 1.6 0 2.8-1.3 2.8-2.8.1-1.5-1.2-2.8-2.8-2.8z"/><path class="st0" d="M143.3 151.9s.4-3.7-.7-6.3c-1.1-2.6-2.1-3.3-2.1-3.3s4.4-1.3 5.8-5.8c1.4-4.5-4-20-3.6-26.6.5-6.6 5.7-17 13.3-17.7 7.5-.7 15 2.2 15.2 10.4.2 8.2-3.9 9.5-7.6 10.1-3.7.6-11.6 4.4-8.5 13.1 2.3 6.7 4.8 14.4 3.8 20.4-1 6.3-9.9 10.9-15.6 5.7z"/><path class="st1" d="M163.7 112.6c-4.1 1.1-9.8-2.4-9.3-6.9.5-4.6 6.2-5.3 7.8-2.2"/></svg>