<svg version="1.1" id="Слой_1" xmlns="http://www.w3.org/2000/svg" x="0" y="0" viewBox="0 0 145.1 188" xml:space="preserve"><style>.st0{fill:none;stroke:#53403b;stroke-width:4.252;stroke-linecap:round;stroke-linejoin:round;stroke-miterlimit:22.9256}.st1{fill-rule:evenodd;clip-rule:evenodd;fill:#53403b}</style><path class="st0" d="M73.5 2.2s12.9.8 23.2 8.1c10.3 7.2 10.3 11.9 16 12.4 5.8.5 6.8-.9 7.1-.5.3.4-5.8 5.7-2.5 9.9s8 10.1 9.4 18.2c1.4 8.1 1.5 10.9 1.5 10.9L127 183.5s-.3 2.1-4.8 2.3c-4.5.2-5.2-2.7-5.2-2.7v-49.2s-1.7.2-5.3-.5c-3.5-.7-3.4-1.2-3.4-1.2s-1.3-62.6-1.6-70.5c-.3-7.9-1-21.1-7.3-26.4-6.3-5.3-17-8.3-22.8-8.9-5.8-.6-8.9-.1-10.1-6.2-1.2-6.1-1-12.3 1.6-15.4 2.6-3.4 5.4-2.6 5.4-2.6zm0 0l-1 23.7"/><path class="st0" d="M128.1 59.2c-2-5.3-7-15.4-10.5-19.3-3.5-3.9-4.5-4.8-5.2-4.7-.7.2-5.3 7.9-5.5 16.2-.2 8.3-.1 11.7-.1 11.7m19.7 25.1s-3.5 7.9-5.5 10.6c-2 2.7-4.4 3.5-4.8 3.5-.4.1-5-1.4-6.8-7.9-1.8-6.5-2.1-12.2-2.1-12.2m8.8-31.4l1 42.9m-.6 17.8l.1 8.5m11.1 5.1s-3.8 1.1-9.8 1c-6-.2-9.7-2.2-9.7-3.5m19.3 10.5s-3.8 1.1-9.8 1c-6-.2-9.4-2.2-9.4-3.5m3.1 2.8l.2 46.8m18.9-10.8v7.8m-7.7-101.8l-.1 58.5"/><path class="st0" d="M116.3 57.9s.4 8.3 6.2 7.2c5.7-1.1 10.1-2 11.6-.3s2.3 4.7.6 6.6c-1.7 1.9-1.2.9-1.3 3.6-.1 2.7.1 6.3.1 6.3m.6-16.6s-1-3.8 2.8-3.9c3.8-.1 5.7.2 6.1-1.2m-40.1-20s-6.7-2.5-9.1 2.7c-2.5 5.2-1 19.7-1 19.7s-.1 6.6 6.1 7.5 8-4.3 8-4.3"/><path class="st0" d="M92.5 48.3s-2-3.2-6.3-3.1c-4.3.1-5.3 3.9-5.3 3.9m24.5-1.7s-3-1.5-5.7-.4-2.8 2-2.8 2m30 103.8s-1.9.7-4.8.8c-2.9.1-4.7-.8-4.7-1.4"/><path class="st1" d="M81.7 12c-1.6 0-2.8 1.3-2.8 2.8s1.3 2.8 2.8 2.8c1.6 0 2.8-1.3 2.8-2.8S83.3 12 81.7 12zm18.8 11c-1.6 0-2.8 1.3-2.8 2.8 0 1.6 1.3 2.8 2.8 2.8 1.6 0 2.8-1.3 2.8-2.8.1-1.6-1.2-2.8-2.8-2.8z"/><path class="st0" d="M71.6 185.7s-12.9-.8-23.2-8.1c-10.3-7.2-10.3-11.9-16-12.4-5.8-.5-6.8.9-7.1.5-.3-.4 5.8-5.7 2.5-9.9s-8-10.1-9.4-18.2c-1.4-8.1-1.5-10.9-1.5-10.9L18 4.4s.3-2.1 4.8-2.3c4.5-.2 5.2 2.7 5.2 2.7V54s1.7-.2 5.3.5c3.5.7 3.4 1.2 3.4 1.2s1.3 62.6 1.6 70.5c.3 7.9 1 21.1 7.3 26.4 6.3 5.3 17 8.3 22.8 8.9 5.8.6 8.9.1 10.1 6.2 1.2 6.1 1 12.3-1.6 15.4-2.5 3.5-5.3 2.6-5.3 2.6zm0 0l1-23.6M17 128.8c2 5.3 7 15.4 10.5 19.3 3.5 3.9 4.5 4.8 5.2 4.7.7-.2 5.3-7.9 5.5-16.2.2-8.3.1-11.7.1-11.7M18.6 99.7s3.5-7.9 5.5-10.6c2-2.7 4.4-3.5 4.8-3.5.4-.1 5 1.4 6.8 7.9 1.8 6.5 2.1 12.2 2.1 12.2M29 137.2l-.9-42.9m.5-17.8l-.1-8.5m-11-5.2s3.8-1.1 9.8-1c6 .2 9.7 2.2 9.7 3.5M17.6 54.9s3.8-1.1 9.8-1 9.4 2.2 9.4 3.5m-3.1-2.8l-.1-46.8M14.7 18.6v-7.8m7.7 101.7l.1-58.5m6.3 76s-.4-8.3-6.2-7.2c-5.7 1.1-10.1 2-11.6.3s-2.3-4.7-.6-6.6c1.7-1.9 1.2-.9 1.3-3.6.1-2.7-.1-6.3-.1-6.3m-.5 16.6s1 3.8-2.8 3.9c-3.8.1-5.7-.2-6.1 1.2m40 20s6.7 2.5 9.1-2.7c2.5-5.2 1-19.7 1-19.7s.1-6.6-6.1-7.5c-6.2-.9-8 4.3-8 4.3m14.4 17s2 3.2 6.3 3.1c4.3-.1 5.3-3.9 5.3-3.9m-24.5 1.6s3 1.5 5.7.4 2.8-2 2.8-2m-30-103.8s1.9-.7 4.8-.8c2.9-.1 4.7.8 4.7 1.4"/><path class="st1" d="M63.4 176c1.6 0 2.8-1.3 2.8-2.8 0-1.6-1.3-2.8-2.8-2.8-1.6 0-2.8 1.3-2.8 2.8 0 1.5 1.3 2.8 2.8 2.8zm-18.8-11c1.6 0 2.8-1.3 2.8-2.8s-1.3-2.8-2.8-2.8c-1.6 0-2.8 1.3-2.8 2.8s1.2 2.8 2.8 2.8z"/></svg>