<svg version="1.1" id="Слой_1" xmlns="http://www.w3.org/2000/svg" x="0" y="0" viewBox="0 0 192.1 147.7" xml:space="preserve"><style>.st0{fill:#fff;stroke:#53403b;stroke-width:4.252;stroke-linecap:round;stroke-linejoin:round;stroke-miterlimit:22.9256}</style><path class="st0" d="M56.3 76.8s10.9 69.1 41.4 68.8c30.4-.3 39.1-67.1 39.9-69.4m-45.1 32.7s-6.4-7.2-34.6 11.4c-18.2 12-41.3 21.6-50.2 18.1-4.3-1.7-5.9-4.3-5.5-8.4.6-5.5 6.8-11.1 11.9-7.9"/><path d="M42.3 51.7c6.5 0 11.8 5.3 11.8 11.8 0 6.5-5.3 11.8-11.8 11.8-6.5 0-11.8-5.3-11.8-11.8 0-6.6 5.3-11.8 11.8-11.8zm1.8 28.4c6.2 0 11.2 5 11.2 11.2 0 6.2-5 11.2-11.2 11.2s-11.2-5-11.2-11.2c0-6.2 5-11.2 11.2-11.2zm107.3-28.6c-6.5 0-11.8 5.3-11.8 11.8 0 6.5 5.3 11.8 11.8 11.8 6.5 0 11.8-5.3 11.8-11.8.1-6.5-5.2-11.8-11.8-11.8zm-1.6 28.6c-6.2 0-11.2 5-11.2 11.2 0 6.2 5 11.2 11.2 11.2 6.2 0 11.2-5 11.2-11.2 0-6.2-5-11.2-11.2-11.2z" stroke="#53403b" stroke-width="4.252" stroke-linecap="round" stroke-linejoin="round" stroke-miterlimit="22.926" fill="#fff" fill-rule="evenodd" clip-rule="evenodd"/><path class="st0" d="M99.6 108.9s6.4-7.2 34.6 11.4c18.2 12 41.3 21.6 50.2 18.1 4.3-1.7 5.9-4.3 5.5-8.4-.6-5.5-6.8-11.1-11.9-7.9M86.9 68.8l-19.1-.2"/><path d="M81.1 76.1c-1.9 0-3.4 1.5-3.4 3.4s1.5 3.4 3.4 3.4 3.4-1.5 3.4-3.4-1.6-3.4-3.4-3.4zm32.5 0c-1.9 0-3.4 1.5-3.4 3.4s1.5 3.4 3.4 3.4 3.4-1.5 3.4-3.4-1.5-3.4-3.4-3.4z" fill="#53403b" fill-rule="evenodd" clip-rule="evenodd"/><path class="st0" d="M48.8 38.1c-2.6-.1-5.1 6.1-2.4 9.1 3.6 3.9 9.1 2.6 10.3-1.2 5-15.8 16.9-43.9 38.6-43.9m49.3 36c2.6-.1 5.1 6.1 2.4 9.1-3.6 3.9-9.1 2.6-10.3-1.2-5-15.8-16.9-43.9-38.6-43.9m-.4 35.2c-4.5.1-10.1-4.2-16.3-4.6-6.2-.3-13.6 6.1-17.5 16.3-3.9 10.2-3.6 15.6-3.7 18.3m37.5-30c4.5.1 10.1-4.2 16.3-4.6 6.2-.3 13.6 6.1 17.5 16.3 3.9 10.2 3.6 15.6 3.7 18.3m-37.5-30V2.1m29.5 66.7l-19.1-.2"/></svg>