<svg version="1.1" id="Слой_1" xmlns="http://www.w3.org/2000/svg" x="0" y="0" viewBox="0 0 190.3 176.1" xml:space="preserve"><style>.st0{fill:none;stroke:#53403b;stroke-width:4.252;stroke-linecap:round;stroke-linejoin:round;stroke-miterlimit:22.9256}</style><path class="st0" d="M146.9 60.9s4.1-3.2 21.2-13.8c17-10.6 26.9-17.3 14.5-16.1-12.4 1.2-40.7 8.3-84.6 33.8-43.9 25.5-91.8 58-69 53.4 22.8-4.6 49.2-18.2 49.2-18.2"/><path class="st0" d="M25.1 113.9s48-50.6 74.5-66c26.5-15.4 44.4-21.6 60-21.4s27 4.3 27 4.3"/><path class="st0" d="M74.3 66.9L71 61.3s-2.1-1.6 1.6-5.1c3.7-3.5 6.2-7.4 20.2-14.7 14-7.4 40.6-10.9 40.6-10.9"/><path class="st0" d="M75.9 53.1s-4.4-8-.4-13.6 14.8-19.7 37.1-20.2c22.3-.6 23.7 11.3 23.7 11.3M74.2 79s-1.3 1.5-.4 10.2 7.1 13.6 7.1 13.6 1.4 1.6 8.5-.7 31.5-8.1 33.8-8.1c2.3 0 9.4 3 14.5 4.8 5.1 1.8 6.7 2.1 9.7-9 3-11 .4-27.3-3.7-36.8-4-9.5-4.9-9.2-4.9-9.2"/><path d="M119.2 53.2s6.8.5 11.6 3.2c4.8 2.8 4.8 3.2 4.8 3.2s3.6 20.7-4.5 31.8c-8.1 11.1-16.7 17.7-30.5 13.1S83.4 73.4 83.4 73.4 90 68.9 102.8 62c12.9-7 16.4-8.8 16.4-8.8h0z" fill-rule="evenodd" clip-rule="evenodd" fill="#fff" stroke="#53403b" stroke-width="4.252" stroke-linecap="round" stroke-linejoin="round" stroke-miterlimit="22.926"/><path class="st0" d="M89.4 102.1c-3.1 2.9-.6 6.8-19.7 10.9-19.1 4.1-22.4 5.6-35 29.1-5.2 9.6-10 21.3-13.9 31.9m102.3 0c.1-1.2.2-2.5.4-3.8 1.1-8.3 2.8-12 6.7-20.2 3.9-8.3 8.5-14.3-.9-20.9-9.4-6.7-14-9.2-14-9.2m-45.6-6.8s4.1-.8 12.8 6.3c8.7 7.1 15.4 18.9 29 18.6 13.6-.2 14.3-5.5 14.3-5.5s-.3-1.7-3.6-5.5c-3.3-3.7-7-7.2-7-7.2m6.6-17.7s-6.6 11.9-8.8 20.4c-2.2 8.5-3.5 15.4-3.5 15.4m-35.4 7.5s-1.8 8.7-9 19.8c-2 3.1-3.8 6.1-5.4 8.8M75.9 53.1S56 61 36.8 55.3c-19.2-5.7-27.9-23.1-24-38.4 2-8.2 6-12 11.2-14.8m38.5 53.4s-4.8-1.1-4.4-7.3c.5-6.2 3.8-10.4 8-14.1C70.3 30.3 72 26 72 26M55.9 56.6s-4.9-2.4-5.1-9.4c-.3-7 2.5-11.2 6.2-14.6 3.7-3.4 4.8-8.1 4.8-8.1M47.2 56.9s-4.8-2.4-4.9-9.6c-.1-7.2 2.7-11.5 6.5-15s5-8.3 5-8.3M39.7 56.4s-4.1-3.3-5.4-9.6c-1.2-6.3 1.4-9.9 5.2-14.5 3.8-4.6 5.3-8.8 5.3-8.8M30.2 52.3s-2.9-3.2-4.1-8.4c-1.3-5.2.8-9.2 4.4-13.3 3.7-4.2 6.3-9.1 6.3-9.1M23.3 48.2s-1.7-1.1-3-6.5-.5-11.6 3.1-16.2S31 16 31 16M16.8 40.9s-3-6.4-1.7-12 2-8 5.8-13 7.4-6.3 10.2-9.1m35.8 48.8S63 58.2 60 64.2c-3 5.9-2.6 10.6-2.6 10.6m1.7-18.2s-5.4 3.2-8.4 9.1c-3 5.9-2.6 10.6-2.6 10.6m2.9-19c.3 0-5.4 2.8-8.5 8.6-3.1 5.9-5.1 11.7-5.1 11.7m6.3-20.8s-6.5 4.3-9.3 8.4c-2.8 4.1-3.4 8.4-5.8 10.8m9.2-20.6s-6.7 2.1-10.3 8.2c-3.6 6.2-4.8 6.1-9.1 8.2m12.3-18c-3.9 1.3-5.5 4-8.2 6.4-2.6 2.4-5.2 5.2-11.2 2.8m16.6-11.9c-3.9.1-6.3 2.2-9.4 3.8-3.1 1.6-6.4 3.6-11-.8M23 48.2c-2.8-.7-5.8.5-8 1s-6.2-.4-9.8-4.2m14 .1c-3.1-1.4-4.3-.3-7.5-2.6-3.2-2.2-6.4-5.4-9.6-10.5m14.7 8.9c-2.9-2.4-6.7-7.4-8.7-10.7C6 26.9.7 17.6 6.6 7.3"/><path d="M83.2 87.2c-1.6 0-2.8 1.3-2.8 2.8 0 1.6 1.3 2.8 2.8 2.8S86 91.6 86 90c0-1.6-1.3-2.8-2.8-2.8z" fill-rule="evenodd" clip-rule="evenodd" fill="#53403b"/></svg>