<svg version="1.1" id="Слой_1" xmlns="http://www.w3.org/2000/svg" x="0" y="0" viewBox="0 0 137.3 206.6" xml:space="preserve"><style>.st0,.st2{fill:#fff;stroke:#53403b;stroke-width:4.252;stroke-linecap:round;stroke-linejoin:round;stroke-miterlimit:22.9256}.st2{fill:none}</style><path class="st0" d="M20.3 75s-.4-.6-9.2 6.3c-8.8 6.9-8.4 7.5-6.4 10.9 1.9 3.4 10.7 15 17.4 20.4 6.7 5.4 8.9 6.3 8.9 6.3m-3.9-33.2L21 91.1s5.1 10.5 9.9 16.1c4.7 5.6 9.9 9.4 9.9 9.4M116.6 75s.4-.6 9.2 6.3c8.8 6.9 8.4 7.5 6.4 10.9-1.9 3.4-10.7 15-17.4 20.4-6.7 5.4-8.9 6.3-8.9 6.3m4.1-33.2l6.1 5.4s-5.1 10.5-9.9 16.1c-4.7 5.6-9.9 9.4-9.9 9.4m-47.5 67.7s.6 8.2 1.7 14.8c.3 2.2.4 3.8.4 5.3m31.4 0c.3-3.9.9-6.9 2.7-11.3l3.1-7.7M56.5 12c-2.5 2.7-5.6 3.9-7.9 11.5-2.3 7.6-1.9 18 1.8 24.5 3.6 6.5 6.8 7.9 10.5 9 3.8 1.1 10-1.6 12.2-3.5m10 10.2s-4.7-2.8-4.8-7.4c-.1-4.6 3.8-7 3.8-7"/><path d="M44.2 5.4c-4.5 1.3-2.1 12 12.4 22.8s38.3 22 40.7 17.2c1.7-3.5.3-4.8-8.1-8.1h0c-2.1-.8.8-2 4.3-10.5s-3.8-17.7-15.4-23c-11.6-5.3-16.3 2.9-20 6.8-3.7 3.8-5.7 2.4-5.7 2.4-3.7-4.7-6.3-8.2-8.2-7.6h0z" fill-rule="evenodd" clip-rule="evenodd" fill="none" stroke="#53403b" stroke-width="4.252" stroke-linecap="round" stroke-linejoin="round" stroke-miterlimit="22.926"/><path class="st2" d="M49.3 21.8s-9.2 4.6-13.7 17.8c-4.5 13.2 3.6 24.7 3.6 24.7m10.1-42.5s-7.5 7.1-7.9 21C40.9 56.7 52 65.4 52 65.4"/><path d="M55.5 61c-1.6.2-4.1.4-7 0-5.2-.6-8.4 3.2-9.4 3.2-1 .1-2.3-1.3-10-3.4-7.7-2.1-11-5.1-11.8 0-.8 5.1.4 4 2.8 5.5 1.2.8.3 1.8-.5 2.9 0 0-4.3 1.4-.5 4.9 3.8 3.5 11.3 7.3 8.6 10.5-2.7 3.2-.5 6.8 4.4 11 4.9 4.3 6.4 7.3 9.1 2.9 2.7-4.4 4.5-6.8 4.5-6.8s-.1 12.2-.1 16.5c0 4.3-.6 5.8-.6 5.8s-.8 2-9.4 3.9c-10.2 2.2-19.2 3.3-29.4 4.7 0 0-5.4-.2-2.5 6.9 2.9 7.1 6.2 9.7 2.3 11.8-3.9 2.1-6 2.6-1 10.1s12.1 8.6 9.1 11.2c-2.9 2.6-1.5 4.3 4.6 8.2 6 3.9 6 3.7 13.6 6 7.7 2.4.1 6.4 13.2 7.2 10.6.7 19.7.4 22.8.3h.2v0h.2v0h.2c3.1.1 12.2.4 22.8-.3 13.1-.9 5.5-4.9 13.2-7.2 7.7-2.4 7.6-2.2 13.6-6 6-3.9 7.5-5.6 4.6-8.2-2.9-2.6 4.2-3.6 9.1-11.2 5-7.5 2.9-7.9-1-10.1-3.9-2.1-.6-4.7 2.3-11.8 2.9-7.1-2.5-6.9-2.5-6.9-10.2-1.4-19.2-2.4-29.4-4.7-8.6-1.9-9.4-3.9-9.4-3.9s-.6-1.5-.6-5.8-.1-16.5-.1-16.5 1.8 2.4 4.5 6.8 4.3 1.4 9.1-2.9c4.9-4.3 7.1-7.8 4.4-11-2.7-3.2 4.8-7 8.6-10.5s-.5-4.9-.5-4.9c-.8-1.1-1.7-2.1-.5-2.9 2.4-1.5 3.6-.3 2.8-5.5-.8-5.1-4.2-2.1-11.8 0-7.7 2.1-9 3.5-10 3.4-1-.1-4.2-3.9-9.4-3.2-2.5.3-4.2.2-5.3.1-.5 7.7-6.6 13.7-14 13.7-7.3 0-13.4-6.1-13.9-13.8h0z" fill-rule="evenodd" clip-rule="evenodd" fill="#fff" stroke="#53403b" stroke-width="4.252" stroke-linecap="round" stroke-linejoin="round" stroke-miterlimit="22.926"/><path class="st0" d="M61.4 72v34.2M77.7 72v34.2m-31.6.6h45.5m-46.5 7.9h47.6"/><path d="M69.7 80.3c-1.6 0-2.8 1.3-2.8 2.8 0 1.6 1.3 2.8 2.8 2.8 1.6 0 2.8-1.3 2.8-2.8.1-1.5-1.2-2.8-2.8-2.8zm0 11.7c-1.6 0-2.8 1.3-2.8 2.8 0 1.6 1.3 2.8 2.8 2.8 1.6 0 2.8-1.3 2.8-2.8.1-1.5-1.2-2.8-2.8-2.8z" fill-rule="evenodd" clip-rule="evenodd" fill="#53403b"/><path class="st2" d="M39.1 65l6.7 27.2M98.1 65l-6.7 27.2m-30 23.6v68.5m-4-69.6l-20.3 63.9m16.1-63.9L13 164.6m34.8-49.9l-45.7 30m75.7-28.9v68.5m3.8-69.6l19.6 63.9m-15.5-63.9l38.7 49.9m-33.5-49.9l44 30"/></svg>