<svg version="1.1" id="Слой_1" xmlns="http://www.w3.org/2000/svg" x="0" y="0" viewBox="0 0 37 37" xml:space="preserve"><style>.st0{fill:#7c6e68;stroke:#7c6e68;stroke-width:.25;stroke-miterlimit:10}</style><path class="st0" d="M36.5 14.3V14s0-.1-.1-.1l-.1-.1-5.8-4.5V4.7c0-1-.8-1.8-1.8-1.8h-6.5l-2.6-2c-.6-.5-1.5-.5-2.2 0l-2.6 2H8.3c-1 0-1.8.8-1.8 1.8v4.6L.7 13.8l-.1.1s0 .1-.1.1v20.6c0 .2 0 .4.1.6-.1.2-.1.5 0 .7s.4.3.6.2c.3.2.7.3 1 .3h32.4c.4 0 .7-.1 1-.3h.2c.2 0 .4-.1.5-.3s.1-.4 0-.6c.1-.2.1-.4.1-.6l.1-20.3zM18.1 1.8c.2-.2.5-.2.7 0l1.4 1.1h-3.5l1.4-1.1zM2.4 35.3l15.7-12.2c.2-.2.5-.2.7 0l15.7 12.2H2.4zm32.9-.9L19.6 22.2c-.6-.5-1.5-.5-2.2 0L1.7 34.4V15.2l9.8 7.6c.3.2.6.2.8-.1.2-.3.2-.6-.1-.8l-10-7.8 4.2-3.3v4.6c0 .3.3.6.6.6s.6-.3.6-.6V4.7c0-.3.3-.6.6-.6h20.4c.3 0 .6.3.6.6v10.8c0 .3.3.6.6.6s.6-.3.6-.6v-4.6l4.2 3.3-10 7.8c-.3.2-.3.6-.1.8.2.3.6.3.8.1l9.8-7.6v19.1h.2z"/><path class="st0" d="M12.5 8.3h12c.3 0 .6-.3.6-.6s-.3-.6-.6-.6h-12c-.3 0-.6.3-.6.6s.3.6.6.6zm12.6 3c0-.3-.3-.6-.6-.6h-12c-.3 0-.6.3-.6.6s.3.6.6.6h12c.3 0 .6-.3.6-.6zm0 3.6c0-.3-.3-.6-.6-.6h-5.4c-.3 0-.6.3-.6.6s.3.6.6.6h5.4c.3 0 .6-.3.6-.6z"/></svg>