<svg xmlns="http://www.w3.org/2000/svg" xmlns:xlink="http://www.w3.org/1999/xlink" width="29" height="38" viewBox="0 0 29 38"><defs><path id="osila" d="M363 544.402c0 7.734-13.377 22.714-13.944 23.351a.75.75 0 0 1-1.112 0c-.568-.63-13.944-15.617-13.944-23.351.004-7.95 6.494-14.394 14.504-14.402 8.006.012 14.492 6.455 14.496 14.402zm-1.486-.008c0-7.131-5.825-12.912-13.01-12.912-7.186 0-13.011 5.78-13.011 12.912 0 6.335 10.458 18.773 13.01 21.737 2.553-2.949 13.011-15.402 13.011-21.737zm-4.881.63c0 4.306-3.515 7.797-7.853 7.801-4.341.004-7.864-3.485-7.868-7.793-.004-4.309 3.512-7.805 7.853-7.809 4.34.004 7.86 3.493 7.868 7.801zm-1.5.008c0-3.49-2.852-6.32-6.368-6.32-3.517 0-6.367 2.83-6.367 6.32s2.85 6.319 6.367 6.319c3.515-.004 6.363-2.831 6.367-6.32z"/></defs><g><g transform="translate(-334 -530)"><use fill="#7d6f69" xlink:href="#osila"/></g></g></svg>