<svg version="1.1" id="Слой_1" xmlns="http://www.w3.org/2000/svg" x="0" y="0" viewBox="0 0 160.4 204.2" xml:space="preserve"><style>.st0{fill:#fff;stroke:#53403b;stroke-width:4.252;stroke-linecap:round;stroke-linejoin:round;stroke-miterlimit:22.9256}.st1{fill-rule:evenodd;clip-rule:evenodd;fill:#53403b}.st2{fill:none;stroke:#53403b;stroke-width:4.252;stroke-linecap:round;stroke-linejoin:round;stroke-miterlimit:22.9256}</style><path class="st0" d="M80.3 202.1H21.4c-3.6-7.4-7.6-16.1-10.5-23.2C4.2 162.3.6 158.5 2.8 147s9.2-37.2 12.6-49.4c3.2-11.4 5.9-15.4 11.4-16.6l34.1-7.9c-1.4 15 8.5 105.3 19.4 105.5 10.8-.2 20.8-90.5 19.4-105.5l34.1 7.9c5.5 1.3 8.2 5.2 11.4 16.6 3.4 12.2 10.3 37.9 12.6 49.4 2.2 11.4-1.5 15.3-8.1 31.8-2.9 7.2-6.9 15.8-10.5 23.2H80.3v.1zm45.3-17.7s4.9-15.3 7.4-22.2c2.1-5.9-4.6-30.2-5.5-30.2-1 0-5 17-4.1 29.9 1 13 2.2 22.5 2.2 22.5zm-90.9-2s-5.3-15.5-7.8-22.3c-2.1-5.9 5-28.1 6-28 1 .1 5 17 4.1 29.9-1 12.9-2.3 20.4-2.3 20.4zm47.2-93.5l-7.5 3.2-7.4 3.2V82.5l7.5 3.2 7.4 3.2zm-3.5 0l7.5 3.2 7.5 3.2V82.5l-7.5 3.2-7.5 3.2z"/><path class="st1" d="M80.1 104.6c-1.6 0-2.8 1.3-2.8 2.8 0 1.6 1.3 2.8 2.8 2.8 1.6 0 2.8-1.3 2.8-2.8 0-1.5-1.2-2.8-2.8-2.8zm0 18c-1.6 0-2.8 1.3-2.8 2.8 0 1.6 1.3 2.8 2.8 2.8 1.6 0 2.8-1.3 2.8-2.8 0-1.5-1.2-2.8-2.8-2.8zm0 18.1c-1.6 0-2.8 1.3-2.8 2.8 0 1.6 1.3 2.8 2.8 2.8 1.6 0 2.8-1.3 2.8-2.8 0-1.6-1.2-2.8-2.8-2.8z"/><path class="st2" d="M103.7 24.2s4.1-2.2 9.6-3.5c5.6-1.3 10.6.4 8.2 4.7-2.1 3.8-11.3 6.4-44.8 1.6-33.5-4.8-36.5 1.1-36.4 3.4.1 2.3 3 4.5 9.2 3.9s10.2-2.7 10.2-2.7"/><path class="st2" d="M59.5 25.5s3.6 40 20.3 39.8c16.7-.2 20.2-34.5 20.6-35.8"/><path class="st2" d="M78 50s-1.4-1.7-7.5 1.5-11.1 3.2-11.6-.3M81.7 50s1.4-1.7 7.5 1.5 11.1 3.2 11.6-.3M50.3 76.6s-3.9 28.3.4 65.5 30.2 50.1 30.2 50.1m30.1-116s4.4 28.6.1 65.8c-4.3 37.2-30.2 50.1-30.2 50.1M57.2 25.2S52.5 2.1 80.3 2.1s23.2 27.4 23.2 27.4"/><path class="st0" d="M63.7 73.8c3 0 3.7-6.9 3.7-9.3v-8.9m30.1 18.2c-3 0-3.7-6.9-3.7-9.3v-8.9M61.7 73.1l18.5 8.1L99.6 73"/><path class="st1" d="M80.1 157.7c-1.6 0-2.8 1.3-2.8 2.8 0 1.6 1.3 2.8 2.8 2.8 1.6 0 2.8-1.3 2.8-2.8 0-1.6-1.2-2.8-2.8-2.8z"/></svg>