<svg version="1.1" id="Слой_1" xmlns="http://www.w3.org/2000/svg" x="0" y="0" viewBox="0 0 145.9 214.2" xml:space="preserve"><style>.st0{fill:none;stroke:#53403b;stroke-width:4.252;stroke-linecap:round;stroke-linejoin:round;stroke-miterlimit:22.9256}</style><path class="st0" d="M72.6 23.1c-1.4-.2-12.5-1.4-22.5 6.8-10.7 8.7-10.7 13.3-10.7 13.3L49.9 78s3.6 9 11.7 12.3c6.4 2.6 15.5 2.6 21.9 0C91.6 87 95.2 78 95.2 78l10.5-34.8s0-4.7-10.7-13.3c-9.9-8.2-21.1-7-22.4-6.8zM39.4 43.2s12.3 28.1 33.3 28.1c21 0 33-28.1 33-28.1M49.9 74.3s8.4 5 22.8 5 22.6-5 22.6-5"/><path d="M72.6 17.9c3.9 0 7.1 3.6 7.1 8.1s-3.2 8.1-7.1 8.1-7.1-3.6-7.1-8.1 3.2-8.1 7.1-8.1h0z" fill-rule="evenodd" clip-rule="evenodd" fill="#fff" stroke="#53403b" stroke-width="4.252" stroke-linecap="round" stroke-linejoin="round" stroke-miterlimit="22.926"/><path class="st0" d="M51.7 82.7s-.1 33.9 20.9 33.9 20.8-33.9 20.8-33.9m-3.8 51c.7 2.4 1.1 5.1 1.1 7.8 0 12.3-8.1 22.2-18 22.2s-18-9.9-18-22.2c0-2.7.4-5.4 1.1-7.8 2.6 8.4 9.1 14.4 16.9 14.4 7.7 0 14.3-6 16.9-14.4zm-20.2-17.4v17.4l-11.7-7.5v-18.7m17.6 9.1v17.1l11.7-7.5v-17.5m-29.3 17.4l-21.3 5.4M21.9 127c8.2 0 14.8 2.3 14.8 5.1s-6.6 5.1-14.8 5.1c-8.2 0-14.8-2.3-14.8-5.1s6.6-5.1 14.8-5.1zm-15.3 5.5v21.6m5.3-16.8v16.8m5.3-16.8v16.8m5.3-16.8v16.8m5.4-16.8v16.8m5.3-17.9v17.9m5.3-21.2v21.2m48.2-28l21.3 5.4m14.6-4.5c-8.2 0-14.8 2.3-14.8 5.1s6.6 5.1 14.8 5.1 14.8-2.3 14.8-5.1-6.6-5.1-14.8-5.1zm15.3 5.5v21.6m-5.3-16.8v16.8m-5.4-16.8v16.8m-5.3-16.8v16.8m-5.3-16.8v16.8m-5.3-17.9v17.9m-5.4-21.2v21.2m-48.2-36.5l10.7 6.4m18.4-6.1l-10.7 6.4m-19.5-4.1l-28.2 7.4m59-7.4l28.2 7.4m-43.2 12.2H46.9V212m-14.6 0c-.1-1-.3-2.1-.4-3.3-2.7-21.2-2.7-32-3.3-31.5L25.1 212m-13.2-57.9s-8.5 17.1-9.8 58m111.5-.1c.1-1 .3-2.1.4-3.3 2.7-21.2 2.7-32 3.3-31.5l3.5 34.8m13.2-57.9s8.5 17.1 9.8 58M67.8 20L66.2 2.1M77.5 20l1.6-17.9m-6.5 39.5l12.3 9-12.3 9-12.3-9 12.3-9z"/><path d="M55.9 161.5c-1.6 0-2.8 1.3-2.8 2.8 0 1.6 1.3 2.8 2.8 2.8 1.6 0 2.8-1.3 2.8-2.8 0-1.6-1.2-2.8-2.8-2.8zm0 9.3c-1.6 0-2.8 1.3-2.8 2.8 0 1.6 1.3 2.8 2.8 2.8 1.6 0 2.8-1.3 2.8-2.8 0-1.5-1.2-2.8-2.8-2.8zm0 9.4c-1.6 0-2.8 1.3-2.8 2.8 0 1.6 1.3 2.8 2.8 2.8 1.6 0 2.8-1.3 2.8-2.8 0-1.5-1.2-2.8-2.8-2.8zm0 9.4c-1.6 0-2.8 1.3-2.8 2.8 0 1.6 1.3 2.8 2.8 2.8 1.6 0 2.8-1.3 2.8-2.8 0-1.6-1.2-2.8-2.8-2.8zm0 9.3c-1.6 0-2.8 1.3-2.8 2.8 0 1.6 1.3 2.8 2.8 2.8 1.6 0 2.8-1.3 2.8-2.8 0-1.5-1.2-2.8-2.8-2.8zm33.8-37.4c-1.6 0-2.8 1.3-2.8 2.8 0 1.6 1.3 2.8 2.8 2.8 1.6 0 2.8-1.3 2.8-2.8 0-1.6-1.3-2.8-2.8-2.8zm0 9.3c-1.6 0-2.8 1.3-2.8 2.8 0 1.6 1.3 2.8 2.8 2.8 1.6 0 2.8-1.3 2.8-2.8 0-1.5-1.3-2.8-2.8-2.8zm0 9.4c-1.6 0-2.8 1.3-2.8 2.8 0 1.6 1.3 2.8 2.8 2.8 1.6 0 2.8-1.3 2.8-2.8 0-1.5-1.3-2.8-2.8-2.8zm0 9.4c-1.6 0-2.8 1.3-2.8 2.8 0 1.6 1.3 2.8 2.8 2.8 1.6 0 2.8-1.3 2.8-2.8 0-1.6-1.3-2.8-2.8-2.8zm0 9.3c-1.6 0-2.8 1.3-2.8 2.8 0 1.6 1.3 2.8 2.8 2.8 1.6 0 2.8-1.3 2.8-2.8 0-1.5-1.3-2.8-2.8-2.8z" fill-rule="evenodd" clip-rule="evenodd" fill="#53403b"/><path class="st0" d="M70.1 101.2s-2-1.7-10.9 1.5-16.2 3.2-17-.3m33.3-1.2s2-1.7 10.9 1.5 16.2 3.2 17-.3"/></svg>