<svg version="1.1" id="Слой_1" xmlns="http://www.w3.org/2000/svg" x="0" y="0" viewBox="0 0 202.7 189.5" xml:space="preserve"><style>.st0{fill:#fff;stroke:#53403b;stroke-width:4.252;stroke-linecap:round;stroke-linejoin:round;stroke-miterlimit:22.9256}.st1,.st2{fill-rule:evenodd;clip-rule:evenodd;fill:#53403b}.st2{fill:#fff;stroke:#53403b;stroke-width:4.252;stroke-linecap:round;stroke-linejoin:round;stroke-miterlimit:22.9256}</style><path class="st0" d="M105 2.1c-11 0-20 8.7-20 19.5s9 19.5 20 19.5 20-8.7 20-19.5-8.9-19.5-20-19.5zm-67.4 0c-11 0-20 8.7-20 19.5s9 19.5 20 19.5 20-8.7 20-19.5-8.9-19.5-20-19.5zm52.6 11.3S82.7 7 72.1 7c-10.6 0-19.3 6.9-19.3 6.9"/><path class="st1" d="M14.6 26.4c-2.4 1.1-5.2 0-6.3-2.4-1.1-2.4 0-5.2 2.4-6.3 2.4-1.1 5.2 0 6.3 2.4 1.1 2.4 0 5.2-2.4 6.3z"/><path class="st0" d="M12.6 22v129.5"/><path class="st2" d="M16.9 165.8c-5.3 2.4-11.4 0-13.8-5.3-2.4-5.3 0-11.4 5.3-13.8 5.3-2.4 11.4 0 13.8 5.3s-.1 11.5-5.3 13.8z"/><path class="st0" d="M146.2 159.1L38 187.4c-.6-2.3-1.1-4.6-1.6-6.8-.3 0-.6.1-.9.1-3.5 0-6.2-2.8-6.2-6.2 0-3.2 2.4-5.8 5.5-6.2-.2-3-.4-6-.4-9 0-2.6.1-5.1.3-7.7-3.2-.3-5.7-3-5.7-6.2 0-3.5 2.8-6.2 6.2-6.2.3 0 .6 0 .9.1 1-5.3 2.3-10.5 4-15.5a6.3 6.3 0 0 1-4.1-5.9c0-3.5 2.8-6.2 6.2-6.2.9 0 1.7.2 2.5.5 2.4-5.1 5.1-9.9 8.2-14.6-1.6-1.1-2.7-3-2.7-5.1 0-3.5 2.8-6.2 6.2-6.2 1.5 0 2.8.5 3.9 1.4 3.5-4.2 7.4-8.2 11.5-11.8-.9-1.1-1.5-2.5-1.5-4 0-3.5 2.8-6.2 6.2-6.2 2 0 3.9 1 5 2.5 4.4-3.1 9-5.9 13.7-8.3-.4-.8-.6-1.7-.6-2.7 0-3.5 2.8-6.2 6.2-6.2 2.6 0 4.9 1.6 5.8 3.9 5.2-2 10.6-3.5 16.2-4.7-.1-.4-.1-.7-.1-1.1 0-3.5 2.8-6.2 6.2-6.2 3.2 0 5.8 2.4 6.2 5.5 3.5-.3 7.1-.5 10.7-.5 2.2 0 4.3.1 6.5.2.3-3.2 3-5.7 6.2-5.7 3.5 0 6.2 2.8 6.2 6.2 0 .3 0 .6-.1.9 5.4.9 10.8 2.3 16.1 4a6.3 6.3 0 0 1 5.9-4.1c3.5 0 6.2 2.8 6.2 6.2 0 .9-.2 1.7-.5 2.4 2.6 1.2 5.2 2.5 7.8 4l-53.9 97.1zm-.7-.2l-3.1 24.3c10.7 1.4 21-4.4 25.5-14.3 1.4-3.2 2.1-6.6 2.1-10h-24.5zm0 0l-111 1.1m111-1.1L37.9 131.2m107.6 27.7l-96.7-54.6m96.7 54.6L66.2 81.2m79.3 77.7L89 63.3m56.5 95.6l-29.8-107m29.8 107l-1.1-111m1.1 111l27.7-107.5"/><path class="st2" d="M142.8 164.8c3.2 1.5 7 0 8.5-3.2s0-7-3.2-8.5-7 0-8.5 3.2c-1.4 3.2 0 7 3.2 8.5z"/><path class="st1" d="M42.1 170c-1.6 0-2.8 1.3-2.8 2.8s1.3 2.8 2.8 2.8c1.6 0 2.8-1.3 2.8-2.8s-1.2-2.8-2.8-2.8zm-.1-27.2c-1.6 0-2.8 1.3-2.8 2.8s1.3 2.8 2.8 2.8c1.6 0 2.8-1.3 2.8-2.8s-1.2-2.8-2.8-2.8zm6.2-26c-1.6 0-2.8 1.3-2.8 2.8 0 1.6 1.3 2.8 2.8 2.8 1.6 0 2.8-1.3 2.8-2.8 0-1.5-1.3-2.8-2.8-2.8zm13.8-23c-1.6 0-2.8 1.3-2.8 2.8 0 1.6 1.3 2.8 2.8 2.8 1.6 0 2.8-1.3 2.8-2.8.1-1.6-1.2-2.8-2.8-2.8zM80.8 74c-1.6 0-2.8 1.3-2.8 2.8s1.3 2.8 2.8 2.8c1.6 0 2.8-1.3 2.8-2.8S82.4 74 80.8 74zm23.5-13.4c-1.6 0-2.8 1.3-2.8 2.8 0 1.6 1.3 2.8 2.8 2.8 1.6 0 2.8-1.3 2.8-2.8 0-1.5-1.2-2.8-2.8-2.8zm26-7.3c-1.6 0-2.8 1.3-2.8 2.8s1.3 2.8 2.8 2.8c1.6 0 2.8-1.3 2.8-2.8s-1.2-2.8-2.8-2.8zm28-1c-1.6 0-2.8 1.3-2.8 2.8 0 1.6 1.3 2.8 2.8 2.8 1.6 0 2.8-1.3 2.8-2.8 0-1.5-1.2-2.8-2.8-2.8zm26.5 6.3c-1.6 0-2.8 1.3-2.8 2.8s1.3 2.8 2.8 2.8c1.6 0 2.8-1.3 2.8-2.8s-1.2-2.8-2.8-2.8z"/></svg>