<svg xmlns="http://www.w3.org/2000/svg" viewBox="0 0 33 33"><path d="M16.5.5C7.7.5.5 7.7.5 16.5s7.2 16 16 16 16-7.2 16-16-7.2-16-16-16zm.8 30.3V30c0-.5-.4-.8-.8-.8-.5 0-.8.4-.8.8v.8c-7.2-.4-13-6.2-13.4-13.4h.8c.5 0 .8-.4.8-.8 0-.5-.4-.8-.8-.8h-.9c.4-7.2 6.2-13 13.4-13.4v.8c0 .5.4.8.8.8.5 0 .8-.4.8-.8v-1c7.2.4 13 6.2 13.4 13.4h-.8c-.5 0-.8.4-.8.8 0 .5.4.8.8.8h.8c-.2 7.4-6 13.2-13.3 13.6zm4.3-9.2c-.3.3-.8.3-1.2 0l-4.5-4.5s-.3-.2-.3-.6V6.4c0-.5.4-.8.8-.8.5 0 .8.4.8.8v9.8l4.2 4.2c.5.3.5.8.2 1.2z" fill="#7c6e68" stroke="#7c6e68" stroke-width=".25" stroke-miterlimit="10"/></svg>