<svg version="1.1" id="Слой_1" xmlns="http://www.w3.org/2000/svg" x="0" y="0" viewBox="0 0 184.2 214.8" xml:space="preserve"><style>.st0{fill-rule:evenodd;clip-rule:evenodd;stroke:#53403b;stroke-width:4.252;stroke-linecap:round;stroke-linejoin:round;stroke-miterlimit:22.9256;fill:#fff}</style><path class="st0" d="M83.5 43.6s1 16.5-4.9 21.8c-5.9 5.3-20.3-1.7-30 5.3-9.8 7-30.7 40.9-39.9 56.4s-8.3 13.2 0 22.9 21.8 21.5 28.9 27.8c7.1 6.3 15 15 15 15l3.3-9.3S22.2 141.1 22.3 138c.1-3.1 11.4-16.4 19.4-28.6 8.1-12.2 12.9-15.1 17.1-4.5 4.1 10.6 26.7 14.7 26.7 14.7L92 128v.3l.1-.1.1.1v-.3l6.5-8.4s22.6-4.1 26.7-14.7c4.1-10.6 9-7.7 17.1 4.5 8.1 12.2 19.3 25.5 19.4 28.6.1 3.1-33.6 45.5-33.6 45.5l3.3 9.3s7.9-8.6 15-15c7.1-6.3 20.7-18.1 28.9-27.8 8.3-9.7 9.2-7.4 0-22.9-9.2-15.5-30.1-49.4-39.9-56.4-9.8-7-24.1 0-30-5.3-5.9-5.3-4.9-21.8-4.9-21.8l-8.5.5H92l-8.5-.5z"/><path class="st0" d="M58 103c.7 5.1 3.5 19.5 7 27.8 3.6 8.3 7.1 15.5 4 23-3.2 7.5-4.9 7.2-14.1 20.5-9.2 13.4-12.8 23.8-16.1 38.2h106.8c-3.3-14.4-6.8-24.8-16.1-38.2-9.2-13.4-11-13.1-14.1-20.5-3.2-7.5.4-14.7 4-23s6.3-22.7 7-27.8c-.1-.6-1.8-6.6-7.3-10.5-5.5-3.9-11.3-2.9-19.1.7-3.8 1.7-5.8 2.7-7.6 2.7h-.2c-1.8-.1-3.8-1-7.6-2.7-7.8-3.6-13.7-4.6-19.1-.7-5.7 3.9-7.4 9.9-7.5 10.5zm34-47.4c-.9 0-6-.1-9.4-4.4-3.7-4.7-8.7-11.6-10.7-30.1-.4-4.1-.5-7.5-.3-10.4h40.8c.2 2.9.1 6.3-.3 10.4-2 18.5-7 25.4-10.7 30.1-3.4 4.3-8.5 4.4-9.4 4.4z"/><path class="st0" d="M17.3 2.1S48 3.4 83 24.6s61.2 28.9 71.3 11.9c10.1-16.9-24.8-34.4-24.8-34.4H17.3z"/><path d="M71.8 70.4c1.6 0 2.8 1.3 2.8 2.8 0 1.6-1.3 2.8-2.8 2.8-1.6 0-2.8-1.3-2.8-2.8 0-1.5 1.2-2.8 2.8-2.8zM75 76c1.6 0 2.8 1.3 2.8 2.8s-1.3 2.8-2.8 2.8c-1.6 0-2.8-1.3-2.8-2.8S73.5 76 75 76zm4.5 4.7c1.6 0 2.8 1.3 2.8 2.8s-1.3 2.8-2.8 2.8-2.8-1.3-2.8-2.8 1.2-2.8 2.8-2.8zm5.8 3.5c1.6 0 2.8 1.3 2.8 2.8 0 1.6-1.3 2.8-2.8 2.8-1.6 0-2.8-1.3-2.8-2.8-.1-1.5 1.2-2.8 2.8-2.8zm6.5 1.4c1.6 0 2.8 1.3 2.8 2.8s-1.3 2.8-2.8 2.8c-1.6 0-2.8-1.3-2.8-2.8s1.2-2.8 2.8-2.8zm20.1-15.2c-1.6 0-2.8 1.3-2.8 2.8 0 1.6 1.3 2.8 2.8 2.8 1.6 0 2.8-1.3 2.8-2.8.1-1.5-1.2-2.8-2.8-2.8zm-3.2 5.6c-1.6 0-2.8 1.3-2.8 2.8s1.3 2.8 2.8 2.8c1.6 0 2.8-1.3 2.8-2.8s-1.3-2.8-2.8-2.8zm-4.8 4.7c-1.6 0-2.8 1.3-2.8 2.8s1.3 2.8 2.8 2.8c1.6 0 2.8-1.3 2.8-2.8s-1.2-2.8-2.8-2.8zm-5.7 2.9c-1.6 0-2.8 1.3-2.8 2.8 0 1.6 1.3 2.8 2.8 2.8s2.8-1.3 2.8-2.8c0-1.5-1.3-2.8-2.8-2.8z" fill="#53403b" fill-rule="evenodd" clip-rule="evenodd"/><path d="M66.1 2.2s18.7 11.4 32.5 11.2c13.8-.2 11-11.1 11-11.1M69.4 142.1h45.5m-45.5 12.5h45.5" fill="none" stroke="#53403b" stroke-width="4.252" stroke-linecap="round" stroke-linejoin="round" stroke-miterlimit="22.926"/><path class="st0" d="M68.7 154.6c-3 6.7-4.9 6.9-13.8 19.8-9.2 13.4-12.8 23.8-16.1 38.2h106.9c-3.3-14.4-6.8-24.8-16.1-38.2-8.9-12.9-10.8-13.1-13.8-19.8H68.7z"/><path class="st0" d="M74.7 154.6c-2.2 6.7-3.6 6.9-10.3 19.8-6.9 13.4-9.5 23.8-11.9 38.2h79.4c-2.5-14.4-5.1-24.8-11.9-38.2-6.6-12.9-8-13.1-10.3-19.8h-35z"/><path class="st0" d="M83.1 154.6c-1.2 6.7-1.9 6.9-5.4 19.8-3.6 13.4-5 23.8-6.3 38.2h41.5c-1.3-14.4-2.7-24.8-6.3-38.2-3.5-12.9-4.2-13.1-5.4-19.8H83.1z"/></svg>